<svg id="Layer_1" data-name="Layer 1" xmlns="http://www.w3.org/2000/svg" width="60" height="60" viewBox="0 0 60 60"><defs><style>.cls-1{fill:#333;}.cls-2{fill:#fff;}</style></defs><circle class="cls-1" cx="30" cy="30" r="30"/><path class="cls-2" d="M20.505,34.225l-3.328-8.59h1.23l2.233,6.24q.268.75.451,1.406.2-.7.463-1.406l2.32-6.24h1.16l-3.363,8.59Z"/><path class="cls-2" d="M25.708,26.847V25.635h1.055v1.212Zm0,7.378V28h1.055v6.223Z"/><path class="cls-2" d="M32.628,32.221l1.09.135a2.658,2.658,0,0,1-.955,1.482,3.239,3.239,0,0,1-3.947-.313,3.288,3.288,0,0,1-.8-2.359,3.439,3.439,0,0,1,.808-2.438,2.737,2.737,0,0,1,2.1-.867,2.658,2.658,0,0,1,2.039.85,3.376,3.376,0,0,1,.791,2.39q0,.095-.006.282H29.106a2.392,2.392,0,0,0,.581,1.57,1.722,1.722,0,0,0,1.3.545,1.617,1.617,0,0,0,.991-.3A2.031,2.031,0,0,0,32.628,32.221Zm-3.463-1.706H32.64a2.1,2.1,0,0,0-.4-1.177,1.614,1.614,0,0,0-1.306-.61,1.673,1.673,0,0,0-1.222.487A1.922,1.922,0,0,0,29.165,30.515Z"/><path class="cls-2" d="M36.19,34.225,34.286,28h1.09l.99,3.592.369,1.336q.024-.1.323-1.283L38.048,28h1.084l.931,3.61.311,1.189.357-1.2L41.8,28h1.025l-1.945,6.223h-1.1l-.99-3.727-.24-1.061-1.26,4.788Z"/></svg>