<?xml version="1.0" encoding="UTF-8"?><svg id="a" xmlns="http://www.w3.org/2000/svg" width="50" height="50" viewBox="0 0 50 50"><defs><style>.b{fill:#fff;}.c{fill:#333;}</style></defs><circle class="c" cx="25" cy="25" r="25"/><g><path class="b" d="M17.087,28.521l-2.773-7.159h1.025l1.86,5.201c.15,.417,.275,.807,.376,1.172,.111-.391,.239-.781,.386-1.172l1.934-5.201h.967l-2.803,7.159h-.972Z"/><path class="b" d="M21.423,22.373v-1.011h.879v1.011h-.879Zm0,6.148v-5.186h.879v5.186h-.879Z"/><path class="b" d="M27.19,26.851l.908,.112c-.143,.531-.409,.942-.796,1.235s-.882,.439-1.484,.439c-.758,0-1.36-.234-1.804-.701s-.667-1.122-.667-1.966c0-.872,.225-1.549,.674-2.031s1.032-.723,1.748-.723c.693,0,1.26,.236,1.699,.708s.659,1.136,.659,1.992c0,.052-.002,.13-.005,.235h-3.867c.033,.57,.194,1.006,.483,1.309s.651,.454,1.084,.454c.322,0,.597-.085,.825-.254s.409-.439,.542-.811Zm-2.886-1.421h2.896c-.039-.436-.15-.763-.332-.981-.28-.339-.643-.508-1.089-.508-.404,0-.743,.135-1.018,.405s-.427,.632-.457,1.084Z"/><path class="b" d="M30.159,28.521l-1.587-5.186h.908l.825,2.994,.308,1.113c.013-.055,.103-.412,.269-1.069l.825-3.038h.903l.776,3.008,.259,.991,.298-1.001,.889-2.998h.854l-1.621,5.186h-.913l-.825-3.106-.2-.884-1.05,3.99h-.918Z"/></g></svg>